# xmcd CD database file
#
# Track frame offsets:
#	150
#	15107
#	24862
#	33212
#	40085
#	51537
#	59914
#	72780
#	80065
#	92160
#	106112
#	112617
#	120515
#	131237
#	140507
#	152062
#	164712
#	174315
#
# Disc length: 2498 seconds
#
# Revision: 0
# Processed by: cddbd v1.5PL3 Copyright (c) Steve Scherf et al.
# Submitted via: CDex 1.50
#
DISCID=e809c012
DTITLE=本間勇輔 - コーチ
DYEAR=1996
DGENRE=Soundtrack
TTITLE0=メインタイトル
TTITLE1=食糧部課長
TTITLE2=料亭の政治家
TTITLE3=左遷
TTITLE4=罐詰工場野球部
TTITLE5=台風の中で
TTITLE6=潮騒
TTITLE7=野球なんかやらせない
TTITLE8=網元の娘
TTITLE9=ハープのための
TTITLE10=工場長
TTITLE11=心のままに
TTITLE12=海岸通り
TTITLE13=謝罪
TTITLE14=野球場へ
TTITLE15=コーチ
TTITLE16=再建
TTITLE17=ピアノのための
EXTD=YEAR: 1996
EXTT0=
EXTT1=
EXTT2=
EXTT3=
EXTT4=
EXTT5=
EXTT6=
EXTT7=
EXTT8=
EXTT9=
EXTT10=
EXTT11=
EXTT12=
EXTT13=
EXTT14=
EXTT15=
EXTT16=
EXTT17=
PLAYORDER=
